<?xml version="1.0" standalone="no"?>
<!DOCTYPE svg PUBLIC "-//W3C//DTD SVG 1.1//EN"
  "http://www.w3.org/Graphics/SVG/1.1/DTD/svg11.dtd">
<svg width="166.12550354003906mm" height="12.75177001953125mm" viewBox="-83.06275177001953 70.12411499023436 166.12550354003906 12.75177001953125" xmlns="http://www.w3.org/2000/svg" version="1.1">
	<title>svgOutput</title>
	<desc>made with tinkercad</desc>
<path d="M 82.06275177001953 77.12027740478514 L 82.01603698730469 77.82399749755858 L 81.94925689697266 78.83000183105467 L 82.05540466308594 80.92546081542967 L 82.05233001708984 81.87588500976561 L 81.91999816894531 81.87588500976561 L 81.74705505371094 81.87588500976561 L 81.5534439086914 81.87588500976561 L 80.609375 81.80770111083983 L 80.3889389038086 81.79177856445311 L 80.0452651977539 81.76695251464842 L 79.97146606445312 81.76161956787108 L 79.7886734008789 80.69055938720702 L 79.75247192382812 80.53869628906249 L 79.27445983886719 78.70469665527342 L 79.14099884033203 78.31053161621092 L 79.0295639038086 77.99967956542967 L 78.9566879272461 77.82399749755858 L 78.62755584716797 77.03065490722655 L 78.51435852050781 76.82926940917967 L 77.98868560791016 75.96914672851561 L 77.90057373046875 75.86496734619139 L 77.8239974975586 75.7853317260742 L 77.81502532958984 75.77600097656249 L 77.56259155273438 75.5134811401367 L 77.5407943725586 75.49080657958983 L 77.21881866455078 75.29286193847655 L 77.13018035888672 75.23597717285155 L 77.07097625732422 75.22044372558592 L 76.6225814819336 75.12534332275389 L 76.5632095336914 75.13117218017577 L 76.17303466796875 75.21990966796874 L 76.08380126953125 75.26329803466795 L 75.86448669433594 75.38946533203124 L 75.7760009765625 75.46769714355467 L 75.51353454589844 75.69972991943358 L 75.48194885253906 75.73386383056639 L 75.44927978515625 75.77600097656249 L 75.24849700927734 76.03500366210936 L 75.17054748535156 76.12085723876952 L 75.14102172851562 76.1736373901367 L 75.11474609375 76.22061920166014 L 74.65172576904297 77.01977539062499 L 74.62501525878906 77.08692169189452 L 74.60906219482422 77.1246871948242 L 74.31356811523438 77.82399749755858 L 74.23738098144531 78.00430297851561 L 74.23239135742188 78.02130126953124 L 74.1875991821289 78.18667602539061 L 74.13506317138672 78.3806686401367 L 74.13595581054688 78.34986877441405 L 74.13700103759766 78.31390380859374 L 74.13924407958984 78.23655700683592 L 74.1423568725586 78.1291046142578 L 74.14463806152344 78.05018615722655 L 74.13960266113281 77.92199707031249 L 74.1383056640625 77.82399749755858 L 74.135986328125 77.64947509765624 L 74.13328552246094 77.44616699218749 L 74.17253875732422 75.77600097656249 L 74.21278381347656 74.06338500976561 L 74.1935043334961 73.72799682617186 L 74.16360473632812 73.20785522460936 L 74.13270568847656 72.40821075439452 L 74.13023376464844 72.34423065185545 L 74.28992462158203 71.86341094970702 L 74.29778289794922 71.84749603271483 L 74.39425659179688 71.64243316650389 L 74.40975189208984 71.60948944091795 L 74.41519927978516 71.60951232910155 L 77.45417022705078 71.62162780761717 L 77.8239974975586 71.61911010742186 L 78.31448364257812 71.6157760620117 L 78.86335754394531 71.62042999267577 L 79.04647827148438 72.03239440917967 L 79.06011199951172 72.06500244140624 L 79.0732192993164 72.10633850097655 L 79.51097106933594 73.72799682617186 L 79.81172180175781 74.84212493896483 L 79.85739135742188 75.0266876220703 L 79.9244613647461 75.41234588623045 L 79.98611450195312 75.77600097656249 L 80.10888671875 76.50014495849608 L 80.15696716308594 76.78373718261717 L 80.18853759765625 77.01068115234374 L 80.19851684570312 77.08599853515624 L 80.21549224853516 77.08599853515624 L 81.66000366210938 77.08599853515624 L 81.91999816894531 77.08599853515624 L 82.06047821044922 77.08599853515624 L 82.06275177001953 77.12027740478514 M -79.97146606445312 71.23838043212889 L -79.7886734008789 72.30944061279295 L -79.75247192382812 72.46130371093749 L -79.42231750488281 73.72799682617186 L -79.27445983886719 74.29530334472655 L -79.14099884033203 74.68946838378905 L -79.0295639038086 75.0003204345703 L -78.707763671875 75.77600097656249 L -78.62755584716797 75.96934509277342 L -78.51435852050781 76.1707305908203 L -77.98868560791016 77.03085327148436 L -77.90057373046875 77.13503265380858 L -77.8239974975586 77.21466827392577 L -77.56259155273438 77.48651885986327 L -77.5407943725586 77.50919342041014 L -77.21881866455078 77.70713806152342 L -77.13018035888672 77.76402282714842 L -77.07097625732422 77.77955627441405 L -76.86143493652344 77.82399749755858 L -76.6225814819336 77.87465667724608 L -76.5632095336914 77.8688278198242 L -76.36609649658203 77.82399749755858 L -76.17303466796875 77.78009033203124 L -76.08380126953125 77.73670196533202 L -75.86448669433594 77.61053466796874 L -75.51353454589844 77.30027008056639 L -75.48194885253906 77.26613616943358 L -75.24849700927734 76.96499633789061 L -75.17607116699219 76.88523101806639 L -75.17054748535156 76.87914276123045 L -75.11474609375 76.77938079833983 L -74.65172576904297 75.98022460937499 L -74.62501525878906 75.91307830810545 L -74.56710052490234 75.77600097656249 L -74.23738098144531 74.99569702148436 L -74.23239135742188 74.97869873046874 L -74.1875991821289 74.81332397460936 L -74.15476989746094 74.6920928955078 L -74.13506317138672 74.61933135986327 L -74.14463806152344 74.94981384277342 L -74.13960266113281 75.07800292968749 L -74.135986328125 75.35052490234374 L -74.13328552246094 75.55383300781249 L -74.13850402832031 75.77600097656249 L -74.18663787841797 77.82399749755858 L -74.20671081542969 78.67810058593749 L -74.21278381347656 78.93661499023436 L -74.16360473632812 79.7929229736328 L -74.13268280029297 80.59276580810545 L -74.13023376464844 80.65615081787108 L -74.28992462158203 81.13658905029295 L -74.29778289794922 81.15250396728514 L -74.40975189208984 81.39051055908202 L -74.41519927978516 81.39048767089842 L -74.42316436767578 81.39044952392577 L -77.45417022705078 81.3783721923828 L -77.8239974975586 81.38088989257811 L -78.31448364257812 81.38422393798827 L -78.86335754394531 81.3795700073242 L -78.86639404296875 81.37274169921874 L -79.04647827148438 80.9676055908203 L -79.06011199951172 80.93499755859374 L -79.0732192993164 80.89366149902342 L -79.81172180175781 78.15787506103514 L -79.85739135742188 77.97331237792967 L -79.88336181640625 77.82399749755858 L -79.9244613647461 77.58765411376952 L -80.15696716308594 76.2162628173828 L -80.18853759765625 75.98931884765624 L -80.19851684570312 75.91400146484374 L -81.66000366210938 75.91400146484374 L -81.91999816894531 75.91400146484374 L -82.06047821044922 75.91400146484374 L -82.06275177001953 75.87972259521483 L -81.94925689697266 74.1699981689453 L -81.97164916992188 73.72799682617186 L -81.97777557373047 73.60700225830077 L -82.05540466308594 72.0745391845703 L -82.05233001708984 71.12411499023436 L -81.91999816894531 71.12411499023436 L -81.5534439086914 71.12411499023436 L -80.0452651977539 71.23304748535155 L -79.97146606445312 71.23838043212889 z" fill="none" stroke="rgb(255,0,0)" stroke-width="0.001mm" />
</svg>